<svg width="400" height="400" viewBox="0 0 400 400" fill="none" xmlns="http://www.w3.org/2000/svg">
<rect x="46" y="71" width="291" height="222" fill="#F1F3F5"/>
<path fill-rule="evenodd" clip-rule="evenodd" d="M240.889 302.9C241.489 306.887 242.616 313.187 244.269 321.8C245.229 326.793 246.242 330.11 247.309 331.75C252.179 339.21 258.519 340.21 268.069 340.06C272.089 340 276.469 339.993 281.209 340.04C281.52 340.04 281.828 340.094 282.119 340.2C288.389 342.53 290.969 348.73 287.959 354.79C285.279 360.17 280.889 360.58 274.939 360.58C231.892 360.58 184.226 360.573 131.939 360.56C125.619 360.56 122.169 360.48 121.589 360.32C118.436 359.433 116.029 357.31 114.369 353.95C114.223 353.652 114.126 353.335 114.079 353.01C113.159 346.717 115.479 342.47 121.039 340.27C121.462 340.105 121.913 340.017 122.369 340.01C129.862 339.983 133.956 339.983 134.649 340.01C139.622 340.21 143.326 339.847 145.759 338.92C155.279 335.29 157.379 328.39 159.369 317.8C160.422 312.233 161.422 307.25 162.369 302.85C162.385 302.775 162.384 302.697 162.364 302.623C162.345 302.549 162.309 302.48 162.258 302.423C162.207 302.365 162.144 302.321 162.073 302.292C162.002 302.264 161.925 302.253 161.849 302.26C160.516 302.38 158.986 302.44 157.259 302.44C100.026 302.44 71.1891 302.44 70.7491 302.44C61.4958 302.327 53.2625 299.5 46.0491 293.96C38.0291 287.8 32.2691 278.71 30.1991 268.77C29.7725 266.73 29.5591 263.197 29.5591 258.17C29.5525 216.723 29.5591 162.67 29.5791 96.0101C29.5791 89.2001 32.2691 79.8401 36.3891 73.8901C42.7891 64.6367 51.7491 58.6934 63.2691 56.0601C65.4158 55.5734 67.6591 55.3301 69.9991 55.3301C100.926 55.3901 187.759 55.4167 330.499 55.4101C335.612 55.4101 340.419 56.3134 344.919 58.1201C359.059 63.8201 367.929 74.1967 371.529 89.2501C371.809 90.4234 372.072 92.4167 372.319 95.2301C372.499 97.2101 372.589 99.2301 372.589 101.29C372.609 169.297 372.622 221.81 372.629 258.83C372.629 263.19 372.052 267.453 370.899 271.62C366.699 286.87 353.969 298.33 338.869 301.57C335.702 302.25 327.262 302.567 313.549 302.52C281.716 302.407 257.636 302.373 241.309 302.42C241.248 302.42 241.188 302.433 241.133 302.458C241.077 302.483 241.028 302.52 240.988 302.565C240.948 302.611 240.919 302.664 240.902 302.722C240.885 302.78 240.88 302.841 240.889 302.9ZM163.069 302.73C163.556 303.043 163.696 303.543 163.489 304.23C162.409 307.697 161.636 311.697 161.169 316.23C160.802 319.85 159.569 324.273 157.469 329.5C155.149 335.28 150.849 337.96 145.149 340.54C144.765 340.712 144.353 340.827 143.929 340.88C138.349 341.58 132.539 341.39 126.429 341.32C121.139 341.26 117.579 342.34 115.729 347.19C114.469 350.49 114.982 353.407 117.269 355.94C119.189 358.073 121.039 359.137 122.819 359.13C169.246 358.95 218.312 358.917 270.019 359.03C273.539 359.04 278.009 359.35 281.339 358.98C281.735 358.934 282.119 358.812 282.469 358.62C285.482 356.98 287.349 354.313 288.069 350.62C288.129 350.282 288.139 349.938 288.099 349.6C287.289 342.74 282.759 341.14 276.089 341.18C271.182 341.213 268.166 341.25 267.039 341.29C258.709 341.61 251.969 340.25 247.129 333.53C245.309 330.997 243.839 326.833 242.719 321.04C241.412 314.307 240.542 309.537 240.109 306.73C239.842 304.97 239.822 303.267 240.049 301.62C240.076 301.42 240.179 301.238 240.338 301.112C240.496 300.985 240.697 300.924 240.899 300.94C242.932 301.113 245.012 301.193 247.139 301.18C270.132 301.053 294.709 301.043 320.869 301.15C330.896 301.19 337.772 300.673 341.499 299.6C356.139 295.38 366.959 283.44 370.259 268.6C370.886 265.78 371.186 258.313 371.159 246.2C371.066 210.54 371.049 164.553 371.109 108.24C371.119 104.92 370.809 99.6201 370.959 95.2701C370.986 94.4544 370.895 93.6426 370.689 92.8601C369.949 89.9901 369.709 86.8101 368.719 84.1901C365.386 75.3301 360.362 68.6101 353.649 64.0301C349.802 61.4101 345.539 59.4301 340.859 58.0901C337.619 57.1701 333.352 56.7101 328.059 56.7101C291.919 56.7234 254.982 56.7501 217.249 56.7901C127.122 56.8967 81.9558 56.8934 81.7491 56.7801C81.5558 56.6801 77.9358 56.6634 70.8891 56.7301C66.4891 56.7701 62.9125 57.2167 60.1591 58.0701C50.6125 61.0101 43.1225 66.3734 37.6891 74.1601C30.1691 84.9601 30.9291 96.0501 30.9191 111.19C30.8791 160.417 30.8825 210.103 30.9291 260.25C30.9491 279.92 43.8491 296.11 63.0391 300.41C64.7791 300.803 66.5158 301.003 68.2491 301.01C76.3425 301.057 107.612 301.06 162.059 301.02C162.279 301.02 162.489 301.107 162.646 301.262C162.803 301.417 162.894 301.628 162.899 301.85C162.899 301.963 162.899 302.023 162.899 302.03C162.832 302.146 162.812 302.283 162.844 302.414C162.875 302.544 162.956 302.657 163.069 302.73Z" fill="#030507"/>
<path fill-rule="evenodd" clip-rule="evenodd" d="M162.9 302.03C162.9 302.024 162.9 301.964 162.9 301.85C162.895 301.629 162.804 301.417 162.647 301.262C162.49 301.107 162.28 301.02 162.06 301.02C107.614 301.06 76.3436 301.057 68.2503 301.01C66.5169 301.004 64.7803 300.804 63.0403 300.41C43.8503 296.11 30.9503 279.92 30.9303 260.25C30.8836 210.104 30.8803 160.417 30.9203 111.19C30.9303 96.0504 30.1703 84.9604 37.6903 74.1604C43.1236 66.3738 50.6136 61.0104 60.1603 58.0704C62.9136 57.2171 66.4903 56.7704 70.8903 56.7304C77.9369 56.6638 81.5569 56.6804 81.7503 56.7804C81.9569 56.8938 127.124 56.8971 217.25 56.7904C254.984 56.7504 291.92 56.7238 328.06 56.7104C333.354 56.7104 337.62 57.1704 340.86 58.0904C345.54 59.4304 349.804 61.4104 353.65 64.0304C360.364 68.6104 365.387 75.3304 368.72 84.1904C369.71 86.8104 369.95 89.9904 370.69 92.8604C370.896 93.643 370.987 94.4547 370.96 95.2704C370.81 99.6204 371.12 104.92 371.11 108.24C371.05 164.554 371.067 210.54 371.16 246.2C371.187 258.314 370.887 265.78 370.26 268.6C366.96 283.44 356.14 295.38 341.5 299.6C337.774 300.674 330.897 301.19 320.87 301.15C294.71 301.044 270.134 301.054 247.14 301.18C245.014 301.194 242.934 301.114 240.9 300.94C240.698 300.924 240.497 300.986 240.339 301.112C240.181 301.239 240.077 301.421 240.05 301.62C239.824 303.267 239.844 304.97 240.11 306.73C240.544 309.537 241.414 314.307 242.72 321.04C243.84 326.834 245.31 330.997 247.13 333.53C251.97 340.25 258.71 341.61 267.04 341.29C268.167 341.25 271.184 341.214 276.09 341.18C282.76 341.14 287.29 342.74 288.1 349.6C288.14 349.939 288.13 350.282 288.07 350.62C287.35 354.314 285.484 356.98 282.47 358.62C282.12 358.812 281.737 358.934 281.34 358.98C278.01 359.35 273.54 359.04 270.02 359.03C218.314 358.917 169.247 358.95 122.82 359.13C121.04 359.137 119.19 358.074 117.27 355.94C114.984 353.407 114.47 350.49 115.73 347.19C117.58 342.34 121.14 341.26 126.43 341.32C132.54 341.39 138.35 341.58 143.93 340.88C144.355 340.827 144.766 340.713 145.15 340.54C150.85 337.96 155.15 335.28 157.47 329.5C159.57 324.274 160.804 319.85 161.17 316.23C161.637 311.697 162.41 307.697 163.49 304.23C163.697 303.544 163.557 303.044 163.07 302.73C162.957 302.658 162.876 302.544 162.845 302.414C162.813 302.284 162.833 302.146 162.9 302.03ZM172.44 313.24C187.054 290.894 201.797 268.64 216.67 246.48C243.677 206.247 262.577 177.957 273.37 161.61C275.017 159.124 275.377 156.62 274.45 154.1C274.325 153.777 274.134 153.484 273.89 153.24C271.27 150.647 268.83 149.357 266.57 149.37C251.09 149.45 237.054 149.42 224.46 149.28C224.379 149.28 224.299 149.262 224.227 149.227C224.154 149.191 224.09 149.14 224.04 149.076C223.99 149.013 223.955 148.939 223.937 148.86C223.92 148.781 223.921 148.699 223.94 148.62C229.75 124.07 234.53 101.88 241.35 77.2404C241.564 76.1871 241.407 75.5138 240.88 75.2204C240.808 75.1811 240.729 75.1604 240.65 75.1604C216.11 74.8704 197.24 74.5804 175.72 74.7204C166.914 74.7804 157.9 74.6804 148.68 74.4204C145.75 74.3404 143.47 74.8104 140.99 74.5404C135.41 73.9204 131.58 74.4604 122.29 74.7404C117.584 74.8871 113.264 74.9138 109.33 74.8204C93.4036 74.4604 81.3836 74.3838 73.2703 74.5904C61.8003 74.8904 53.3003 80.2804 49.5303 91.2704C48.8636 93.2104 48.5336 99.2071 48.5403 109.26C48.5603 122.77 48.1903 143.11 48.3603 159.32C48.5736 179.474 48.6769 201.277 48.6703 224.73C48.6636 230.05 48.6569 232.887 48.6503 233.24C48.4369 242.954 48.4836 252.71 48.7903 262.51C48.8168 263.274 48.9344 264.03 49.1403 264.76C51.6203 273.44 57.0569 279.087 65.4503 281.7C69.0103 282.81 73.5903 282.88 77.2503 282.89C122.69 282.93 156.674 282.95 179.2 282.95C179.272 282.95 179.342 282.966 179.407 282.997C179.471 283.028 179.528 283.072 179.573 283.128C179.618 283.184 179.65 283.249 179.667 283.318C179.684 283.388 179.685 283.46 179.67 283.53C178.844 287.51 177.237 292.1 174.85 297.3C173.244 300.794 171.377 305.617 169.25 311.77C168.12 315.03 166.24 318.28 165.61 321.16C165.574 321.32 165.579 321.486 165.623 321.643C165.668 321.801 165.751 321.944 165.865 322.062C165.98 322.179 166.121 322.266 166.277 322.314C166.434 322.363 166.6 322.372 166.76 322.34C167.547 322.187 168.174 321.78 168.64 321.12C170.334 318.7 171.847 316.214 173.18 313.66C173.21 313.603 173.223 313.539 173.218 313.475C173.214 313.411 173.192 313.349 173.155 313.296C173.118 313.244 173.067 313.202 173.008 313.177C172.949 313.151 172.884 313.142 172.82 313.15C172.707 313.17 172.58 313.2 172.44 313.24Z" fill="#16191D"/>
<path d="M241.349 77.2399C241.069 76.5865 240.453 76.2565 239.499 76.2499C177.853 76.1499 123.786 76.1265 77.2993 76.1799C70.4059 76.1865 65.7759 76.6665 63.4093 77.6199C59.0759 79.3665 55.6493 82.4499 53.1293 86.8699C51.0093 90.5965 49.9493 93.3132 49.9493 95.0198C49.9226 164.973 49.9126 218.12 49.9193 254.46C49.9193 260.58 50.4059 264.883 51.3793 267.37C53.2526 272.163 56.6126 275.963 61.4593 278.77C64.2659 280.403 67.8626 281.217 72.2493 281.21C108.903 281.17 145.603 281.157 182.349 281.17L166.559 320.78C166.504 320.92 166.5 321.074 166.548 321.213C166.596 321.351 166.693 321.464 166.819 321.53L166.839 321.55C166.983 321.623 167.147 321.641 167.3 321.6C167.452 321.559 167.581 321.462 167.659 321.33L172.439 313.24C172.579 313.2 172.706 313.17 172.819 313.15C172.883 313.141 172.948 313.15 173.007 313.176C173.066 313.202 173.117 313.243 173.154 313.296C173.191 313.348 173.213 313.41 173.217 313.474C173.222 313.538 173.209 313.603 173.179 313.66C171.846 316.213 170.333 318.7 168.639 321.12C168.173 321.78 167.546 322.187 166.759 322.34C166.599 322.371 166.433 322.362 166.276 322.314C166.12 322.265 165.978 322.178 165.864 322.061C165.75 321.944 165.667 321.8 165.622 321.643C165.578 321.485 165.573 321.319 165.609 321.16C166.239 318.28 168.119 315.03 169.249 311.77C171.376 305.617 173.243 300.793 174.849 297.3C177.236 292.1 178.843 287.51 179.669 283.53C179.684 283.46 179.683 283.387 179.666 283.318C179.649 283.248 179.617 283.183 179.572 283.127C179.527 283.072 179.47 283.027 179.406 282.996C179.341 282.966 179.271 282.95 179.199 282.95C156.673 282.95 122.689 282.93 77.2493 282.89C73.5893 282.88 69.0093 282.81 65.4493 281.7C57.0559 279.087 51.6193 273.44 49.1393 264.76C48.9333 264.029 48.8158 263.274 48.7893 262.51C48.4826 252.71 48.4359 242.953 48.6493 233.24C48.6559 232.887 48.6626 230.05 48.6693 224.73C48.6759 201.277 48.5726 179.473 48.3593 159.32C48.1893 143.11 48.5593 122.77 48.5393 109.26C48.5326 99.2065 48.8626 93.2098 49.5293 91.2698C53.2993 80.2799 61.7993 74.8899 73.2693 74.5899C81.3826 74.3832 93.4026 74.4599 109.329 74.8199C113.263 74.9132 117.583 74.8865 122.289 74.7399C131.579 74.4599 135.409 73.9199 140.989 74.5399C143.469 74.8099 145.749 74.3399 148.679 74.4199C157.899 74.6799 166.913 74.7799 175.719 74.7199C197.239 74.5799 216.109 74.8699 240.649 75.1599C240.728 75.1598 240.807 75.1805 240.879 75.2199C241.406 75.5132 241.563 76.1865 241.349 77.2399Z" fill="#030507"/>
<path d="M241.35 77.2402C234.53 101.88 229.75 124.07 223.94 148.62C223.921 148.699 223.92 148.781 223.937 148.86C223.954 148.939 223.989 149.013 224.039 149.076C224.089 149.14 224.153 149.191 224.226 149.226C224.299 149.262 224.379 149.28 224.46 149.28C237.053 149.42 251.09 149.45 266.57 149.37C268.83 149.357 271.27 150.647 273.89 153.24C274.134 153.484 274.325 153.777 274.45 154.1C275.376 156.62 275.016 159.124 273.37 161.61C262.576 177.957 243.676 206.247 216.67 246.48C201.796 268.64 187.053 290.894 172.44 313.24L167.66 321.33C167.581 321.463 167.453 321.559 167.3 321.6C167.148 321.641 166.983 321.623 166.84 321.55L166.82 321.53C166.693 321.464 166.597 321.351 166.549 321.213C166.501 321.075 166.505 320.92 166.56 320.78L182.35 281.17C197.516 246.77 207.986 222.887 213.76 209.52C216.85 202.37 213.13 197.88 205.79 197.98C204.79 197.994 197.663 197.98 184.41 197.94C182.74 197.94 177.87 196.98 179.33 194.19C198.956 156.81 219.086 118.484 239.72 79.2102C240.213 78.2702 240.756 77.6136 241.35 77.2402Z" fill="#FF488E"/>
</svg>
